<?xml version="1.0" encoding="UTF-8" standalone="no"?>
<!-- Generator: Adobe Illustrator 19.0.0, SVG Export Plug-In . SVG Version: 6.00 Build 0)  -->

<svg
   xmlns:dc="http://purl.org/dc/elements/1.1/"
   xmlns:cc="http://creativecommons.org/ns#"
   xmlns:rdf="http://www.w3.org/1999/02/22-rdf-syntax-ns#"
   xmlns:svg="http://www.w3.org/2000/svg"
   xmlns="http://www.w3.org/2000/svg"
   xmlns:sodipodi="http://sodipodi.sourceforge.net/DTD/sodipodi-0.dtd"
   xmlns:inkscape="http://www.inkscape.org/namespaces/inkscape"
   version="1.1"
   id="Capa_1"
   x="0px"
   y="0px"
   viewBox="0 0 512.037 512.037"
   style="enable-background:new 0 0 512.037 512.037;"
   xml:space="preserve"
   sodipodi:docname="nave.svg"
   inkscape:version="0.92.3 (2405546, 2018-03-11)"><metadata
   id="metadata174"><rdf:RDF><cc:Work
       rdf:about=""><dc:format>image/svg+xml</dc:format><dc:type
         rdf:resource="http://purl.org/dc/dcmitype/StillImage" /></cc:Work></rdf:RDF></metadata><defs
   id="defs172" /><sodipodi:namedview
   pagecolor="#ffffff"
   bordercolor="#666666"
   borderopacity="1"
   objecttolerance="10"
   gridtolerance="10"
   guidetolerance="10"
   inkscape:pageopacity="0"
   inkscape:pageshadow="2"
   inkscape:window-width="1366"
   inkscape:window-height="705"
   id="namedview170"
   showgrid="false"
   inkscape:zoom="1.0467994"
   inkscape:cx="260.79496"
   inkscape:cy="255.0632"
   inkscape:window-x="-8"
   inkscape:window-y="-8"
   inkscape:window-maximized="1"
   inkscape:current-layer="Capa_1" />
<g
   transform="rotate(46.631793,264.34354,273.1409)"
   id="g137">
	<g
   transform="translate(1,9)"
   id="g129">
		<path
   style="fill:#607d8b"
   d="m 428.724,430.821 c 0,0 -54.528,65.877 -132.096,64.597 l -93.696,-35.499 c -9.256,-7.032 -18.01,-14.702 -26.197,-22.955 L 66.057,326.288 C 57.805,318.101 50.134,309.347 43.102,300.091 L 7.604,206.395 C 6.324,128.827 72.202,74.299 72.202,74.299 l 34.048,33.963 245.845,245.845 55.296,55.381 z"
   id="path93"
   inkscape:connector-curvature="0" />
		<path
   style="fill:#cfd8dc"
   d="m 407.391,409.488 c 0,0 -54.528,65.877 -132.096,64.597 l -93.696,-35.499 c -9.256,-7.032 -18.01,-14.702 -26.197,-22.955 L 66.057,326.287 C 57.805,318.1 50.134,309.346 43.102,300.09 L 7.604,206.395 C 6.324,128.827 72.202,74.299 72.202,74.299 l 34.048,33.963 245.845,245.845 z"
   id="path95"
   inkscape:connector-curvature="0" />
		<path
   style="fill:#607d8b"
   d="m 414.302,91.365 -45.909,70.997 c 6.155,7.001 11.937,14.322 17.323,21.931 l -79.957,123.563 -30.72,30.72 -55.296,55.296 -43.007,43.093 c -6.806,6.741 -17.771,6.741 -24.577,0 L 66.058,350.864 c -0.559,-0.532 -1.046,-1.135 -1.451,-1.792 -5.257,-6.897 -4.638,-16.61 1.451,-22.784 l 43.093,-43.008 86.017,-86.016 123.563,-79.957 73.558,-47.616 c 6.812,-4.473 15.829,-3.546 21.589,2.219 0.085,0 0.085,0 0.171,0.085 4.002,5.808 4.102,13.459 0.253,19.37 z"
   id="path97"
   inkscape:connector-curvature="0" />
		<path
   style="fill:#cfd8dc"
   d="m 414.302,91.365 -45.909,70.997 -81.664,126.123 -30.72,30.72 -55.296,55.296 -43.008,43.093 c -6.805,6.741 -17.771,6.741 -24.576,0 L 64.606,349.071 c -5.257,-6.897 -4.638,-16.61 1.451,-22.784 L 109.15,283.279 195.167,197.263 318.73,117.306 392.288,69.69 c 6.812,-4.473 15.829,-3.546 21.589,2.219 0.085,0 0.085,0 0.171,0.085 4.003,5.809 4.103,13.46 0.254,19.371 z"
   id="path99"
   inkscape:connector-curvature="0" />
		<path
   style="fill:#f44335"
   d="m 164.447,227.984 v 49.152 l -49.152,49.152 -36.863,36.949 -12.374,-12.373 c -6.741,-6.805 -6.741,-17.771 0,-24.576 l 43.093,-43.008 z"
   id="path101"
   inkscape:connector-curvature="0" />
		<path
   style="fill:#c52828"
   d="m 275.039,338.576 -55.296,55.296 -43.007,43.093 c -6.806,6.741 -17.771,6.741 -24.577,0 l -12.288,-12.288 36.865,-36.949 49.152,-49.152 z"
   id="path103"
   inkscape:connector-curvature="0" />
		<path
   style="fill:#37474f"
   d="m 176.735,387.728 -36.865,36.949 -43.093,43.008 -61.44,-61.44 43.094,-43.008 36.863,-36.949 c 10.19,-10.155 26.674,-10.155 36.864,0 l 24.577,24.576 c 10.155,10.19 10.155,26.674 0,36.864 z"
   id="path105"
   inkscape:connector-curvature="0" />
		<g
   id="g113">
			<path
   style="fill:#607d8b"
   d="m 159.669,370.661 -36.865,36.949 -43.093,43.008 -44.373,-44.373 43.094,-43.008 36.863,-36.949 c 10.19,-10.155 26.674,-10.155 36.864,0 l 7.51,7.509 c 10.154,10.191 10.154,26.674 0,36.864 z"
   id="path107"
   inkscape:connector-curvature="0" />
			<path
   style="fill:#607d8b"
   d="m 287.344,436.933 v 0 c 3.26,3.26 7.682,5.092 12.292,5.092 4.61,0 9.032,-1.831 12.292,-5.092 l 92.189,-92.189 -24.584,-24.584 -92.189,92.189 c -3.26,3.26 -5.091,7.682 -5.091,12.292 0,4.61 1.831,9.032 5.091,12.292 z"
   id="path109"
   inkscape:connector-curvature="0" />
			<path
   style="fill:#607d8b"
   d="m 66.09,215.679 v 0 c 3.26,3.26 7.682,5.091 12.292,5.091 4.61,0 9.032,-1.831 12.292,-5.091 L 182.863,123.49 158.279,98.906 66.09,191.095 c -3.26,3.26 -5.092,7.682 -5.092,12.292 0,4.61 1.831,9.032 5.092,12.292 z"
   id="path111"
   inkscape:connector-curvature="0" />
		</g>
		<g
   id="g119">
			<path
   style="fill:#f44335"
   d="m 296.628,495.419 c -34.28,-1.235 -67.204,-13.708 -93.696,-35.499 l 16.811,-16.811 c 3.249,-3.277 7.673,-5.12 12.288,-5.12 4.615,0 9.039,1.843 12.288,5.12 z"
   id="path115"
   inkscape:connector-curvature="0" />
			<path
   style="fill:#f44335"
   d="M 59.913,283.28 43.102,300.091 C 21.312,273.598 8.839,240.675 7.604,206.395 l 52.309,52.309 c 3.277,3.25 5.12,7.673 5.12,12.288 0,4.615 -1.843,9.038 -5.12,12.288 z"
   id="path117"
   inkscape:connector-curvature="0" />
		</g>
		<path
   style="fill:#00bcd4"
   d="m 219.724,283.27 0.029,0.029 c 6.201,6.201 14.776,9.424 23.526,8.843 8.75,-0.581 16.824,-4.909 22.15,-11.875 l 48.251,-63.098 c 6.033,-7.89 5.294,-19.027 -1.729,-26.051 l -0.047,-0.047 c -7.023,-7.023 -18.161,-7.762 -26.051,-1.729 l -63.098,48.251 c -6.966,5.327 -11.294,13.4 -11.875,22.15 -0.58,8.751 2.643,17.326 8.844,23.527 z"
   id="path121"
   inkscape:connector-curvature="0" />
		<path
   style="fill:#c52828"
   d="m 433.332,110.736 -47.616,73.557 c -5.386,-7.609 -11.168,-14.929 -17.323,-21.931 l 45.908,-70.997 c 3.849,-5.912 3.749,-13.563 -0.255,-19.371 l 8.533,8.448 8.448,8.533 c 5.835,5.789 6.798,14.88 2.305,21.761 z"
   id="path123"
   inkscape:connector-curvature="0" />
		<path
   style="fill:#f44335"
   d="m 414.302,91.365 -45.909,70.997 c -4.181,-4.779 -8.704,-9.557 -13.483,-14.251 -11.145,-11.297 -23.251,-21.604 -36.181,-30.805 L 392.288,69.69 c 6.812,-4.473 15.829,-3.546 21.589,2.219 0.085,0 0.085,0 0.171,0.085 4.003,5.809 4.103,13.46 0.254,19.371 z"
   id="path125"
   inkscape:connector-curvature="0" />
		<polygon
   style="fill:#fec108"
   points="35.337,406.245 59.999,381.669 121.439,443.109 96.777,467.685 "
   id="polygon127" />
	</g>
	<g
   id="g135">
		<path
   d="m 497.419,224.791 -15.938,15.938 h -33.346 c -4.713,0 -8.533,3.821 -8.533,8.533 0,4.713 3.821,8.533 8.533,8.533 h 16.28 l -71.586,71.59 -6.26,-6.261 c -1.6,-1.601 -3.77,-2.5 -6.033,-2.5 -2.263,0 -4.434,0.899 -6.033,2.5 l -24.7,24.699 L 317.7,315.713 441.552,124.32 c 6.67,-10.261 5.215,-23.796 -3.483,-32.404 L 421.11,74.949 C 412.493,66.247 398.946,64.8 388.685,71.487 L 197.309,195.332 165.2,163.22 189.894,138.525 c 1.601,-1.6 2.5,-3.77 2.5,-6.033 0,-2.263 -0.899,-4.434 -2.5,-6.033 l -6.258,-6.259 71.592,-71.594 v 16.278 c 0,4.713 3.82,8.533 8.533,8.533 4.713,0 8.533,-3.82 8.533,-8.533 V 31.538 l 15.933,-15.934 c 2.178,-2.151 3.037,-5.304 2.251,-8.262 -0.786,-2.958 -3.097,-5.269 -6.055,-6.055 -2.958,-0.786 -6.111,0.073 -8.262,2.251 l -15.938,15.937 h -33.338 c -4.713,0 -8.533,3.821 -8.533,8.533 0,4.712 3.821,8.533 8.533,8.533 h 16.272 l -71.586,71.59 -6.26,-6.261 c -1.6,-1.601 -3.77,-2.5 -6.033,-2.5 -2.263,0 -4.433,0.899 -6.033,2.5 L 128.55,126.566 79.27,77.286 C 76.162,74.171 71.193,73.935 67.803,76.74 65.186,78.898 3.786,130.465 0.178,206.332 c -0.137,2.915 -0.187,5.824 -0.15,8.728 -0.004,0.179 0.013,0.348 0.019,0.527 1.394,36.381 14.678,71.302 37.817,99.411 0.064,0.067 0.082,0.156 0.148,0.222 l 0.039,0.026 c 5.672,7.323 11.724,14.342 18.133,21.029 -4.939,9.901 -2.972,21.853 4.878,29.649 l 6.256,6.256 -36.99,36.99 c -1.601,1.6 -2.5,3.77 -2.5,6.033 0,2.263 0.899,4.433 2.5,6.033 l 61.458,61.458 c 1.6,1.601 3.77,2.5 6.033,2.5 2.263,0 4.433,-0.899 6.033,-2.5 l 36.991,-36.989 6.259,6.259 c 7.829,7.881 19.841,9.825 29.756,4.816 6.583,6.301 13.489,12.256 20.688,17.843 0.106,0.119 0.142,0.272 0.256,0.386 0.426,0.35 0.887,0.656 1.375,0.913 27.692,22.453 61.878,35.392 97.497,36.904 0.352,0.092 0.709,0.162 1.07,0.208 0.198,0 0.383,-0.099 0.581,-0.113 0.485,0.005 0.966,0.084 1.452,0.084 2.3,0 4.608,-0.054 6.908,-0.162 75.875,-3.604 127.442,-65.013 129.592,-67.625 2.805,-3.39 2.57,-8.357 -0.542,-11.467 l -49.281,-49.278 24.698,-24.697 c 1.601,-1.6 2.5,-3.77 2.5,-6.033 0,-2.263 -0.899,-4.434 -2.5,-6.033 l -6.258,-6.259 71.583,-71.586 v 16.27 c 0,4.713 3.821,8.533 8.533,8.533 4.713,0 8.533,-3.821 8.533,-8.533 V 252.8 l 15.941,-15.942 c 2.178,-2.151 3.037,-5.304 2.251,-8.262 -0.786,-2.958 -3.097,-5.269 -6.055,-6.055 -2.958,-0.786 -6.11,0.072 -8.261,2.25 z M 272.514,339.066 h -45.629 c -2.263,0 -4.434,0.899 -6.033,2.5 l -28.167,28.166 c -1.493,-6 -4.58,-11.485 -8.933,-15.875 l -24.583,-24.588 c -4.398,-4.351 -9.893,-7.429 -15.9,-8.907 l 28.192,-28.192 c 1.6,-1.6 2.5,-3.77 2.5,-6.033 v -45.636 l 27.583,-27.584 117.854,-76.265 c 21.604,16.184 40.788,35.369 56.971,56.973 L 300.11,311.471 Z M 122.402,440.013 73.01,390.621 l 12.396,-12.396 0.013,-0.009 0.009,-0.012 36.866,-36.866 c 6.859,-6.829 17.949,-6.829 24.808,0 l 24.583,24.587 c 3.292,3.289 5.142,7.751 5.142,12.404 0,4.653 -1.85,9.116 -5.142,12.404 z M 397.935,85.829 c 3.517,-2.289 8.157,-1.791 11.108,1.192 l 16.958,16.967 c 2.978,2.942 3.479,7.572 1.2,11.083 l -40.953,63.286 c -15.1,-19.17 -32.416,-36.485 -51.586,-51.584 z m -238.658,34.142 6.254,6.256 0.004,0.006 0.006,0.004 6.252,6.254 -86.15,86.15 c -3.5,3.347 -9.014,3.349 -12.517,0.004 v -0.004 c -1.659,-1.659 -2.592,-3.91 -2.592,-6.256 0,-2.347 0.932,-4.597 2.592,-6.256 l 61.441,-61.446 0.018,-0.012 0.012,-0.017 z m -86.3,-24.838 43.504,43.501 -55.421,55.424 c -4.861,4.861 -7.592,11.453 -7.592,18.327 0,6.874 2.731,13.467 7.592,18.327 v 0.004 c 10.122,10.118 26.53,10.116 36.65,-0.004 l 55.423,-55.426 30.952,30.955 L 67.2,323.126 c -4.16,-4.423 -8.042,-8.872 -11.688,-13.343 l 11.465,-11.467 c 10.1,-10.129 10.1,-26.521 0,-36.65 L 17.148,211.837 c 0.017,-1.519 0,-3.037 0.071,-4.559 2.575,-55.366 41.016,-97.82 55.758,-112.145 z M 19.632,238.455 54.91,273.733 c 3.45,3.459 3.45,9.058 0,12.517 l -9.758,9.761 C 32.82,278.76 24.136,259.176 19.632,238.455 Z m 53.495,115.399 c -3.433,-3.466 -3.433,-9.051 0,-12.517 l 83.767,-83.769 v 25.036 l -46.666,46.667 -30.843,30.843 z m 24.692,110.742 -49.392,-49.392 12.517,-12.517 49.392,49.392 z m 61.35,-24.696 -6.259,-6.259 30.843,-30.841 46.667,-46.667 h 25.029 l -83.763,83.763 c -3.511,3.322 -9.005,3.323 -12.517,0.004 z m 57.848,27.967 9.752,-9.75 c 3.51,-3.322 9.004,-3.324 12.517,-0.004 l 35.256,35.255 c -20.707,-4.509 -40.279,-13.186 -57.525,-25.501 z m 200.885,-27.813 c -14.275,14.733 -56.558,53.108 -112.025,55.742 -1.569,0.073 -3.133,0.06 -4.7,0.074 l -49.825,-49.825 c -10.266,-9.763 -26.384,-9.763 -36.65,0 l -11.462,11.463 c -4.472,-3.645 -8.922,-7.525 -13.345,-11.685 l 92.185,-92.185 0.014,-0.013 24.693,-24.692 30.95,30.956 -55.425,55.422 c -10.122,10.121 -10.123,26.53 -0.002,36.652 10.121,10.122 26.53,10.123 36.652,0.002 l 55.427,-55.424 z m -49.545,-61.616 -0.005,0.004 -0.004,0.005 -61.454,61.449 c -3.459,3.45 -9.058,3.45 -12.517,0 -1.659,-1.659 -2.592,-3.91 -2.592,-6.256 0,-2.347 0.932,-4.597 2.592,-6.256 l 86.158,-86.159 6.254,6.256 0.004,0.006 0.006,0.004 6.252,6.254 z"
   id="path131"
   inkscape:connector-curvature="0" />
		<path
   d="m 318.936,194.033 c -10.068,-10.002 -25.967,-11.056 -37.267,-2.471 l -63.1,48.254 c -8.917,6.824 -14.457,17.163 -15.2,28.367 -0.742,11.204 3.385,22.184 11.325,30.124 l 6.033,-6.038 -6.008,6.063 c 7.304,7.305 17.212,11.408 27.542,11.408 0.858,0 1.717,-0.029 2.583,-0.083 11.203,-0.743 21.541,-6.287 28.358,-15.208 l 48.25,-63.095 c 8.606,-11.321 7.532,-27.258 -2.516,-37.321 z m -11.034,26.954 -48.25,63.095 c -3.834,5.012 -9.645,8.127 -15.942,8.546 -6.079,0.459 -12.069,-1.678 -16.483,-5.883 l -0.025,-0.029 c -0.142,-0.167 -0.292,-0.325 -0.442,-0.483 -4.462,-4.459 -6.783,-10.628 -6.366,-16.923 0.417,-6.295 3.53,-12.104 8.541,-15.936 l 63.1,-48.254 c 1.96,-1.497 4.359,-2.307 6.825,-2.304 4.306,-0.01 8.245,2.423 10.163,6.278 1.919,3.855 1.484,8.465 -1.121,11.893 z"
   id="path133"
   inkscape:connector-curvature="0" />
	</g>
</g>
<g
   id="g139">
</g>
<g
   id="g141">
</g>
<g
   id="g143">
</g>
<g
   id="g145">
</g>
<g
   id="g147">
</g>
<g
   id="g149">
</g>
<g
   id="g151">
</g>
<g
   id="g153">
</g>
<g
   id="g155">
</g>
<g
   id="g157">
</g>
<g
   id="g159">
</g>
<g
   id="g161">
</g>
<g
   id="g163">
</g>
<g
   id="g165">
</g>
<g
   id="g167">
</g>
</svg>